<?xml version="1.0" encoding="UTF-8" standalone="no"?>
<!DOCTYPE svg PUBLIC "-//W3C//DTD SVG 20010904//EN"
              "http://www.w3.org/TR/2001/REC-SVG-20010904/DTD/svg10.dtd">

<svg xmlns="http://www.w3.org/2000/svg"
     width="500" height="128"
     viewBox="0 0 500 128">
  <path id="Selection #1"
        fill="currentColor" stroke="black" stroke-width="0.5"
        d="M 54.82,109.67
           C 48.99,109.55 39.59,105.31 34.30,102.76
             25.17,98.36 15.84,91.35 10.40,82.96
             0.87,68.19 2.00,48.81 13.14,35.14
             18.74,28.28 26.27,23.01 34.30,19.09
             39.30,16.66 49.38,12.42 54.82,12.17
             54.32,15.01 51.42,15.51 48.97,16.76
             44.87,18.84 39.75,22.49 36.27,25.43
             26.35,33.77 20.39,45.65 19.08,58.11
             19.08,58.11 18.77,60.92 18.77,60.92
             18.77,60.92 19.13,64.21 19.13,64.21
             20.08,76.67 26.34,88.66 36.27,96.82
             40.82,100.56 44.08,102.77 49.45,105.34
             51.85,106.50 54.34,106.95 54.82,109.67 Z
           M 76.79,104.05
           C 75.72,106.96 72.83,105.54 70.44,104.83
             64.78,103.14 59.58,101.48 54.33,98.75
             42.28,92.49 32.24,83.49 28.89,70.30
             27.78,65.93 27.90,62.54 27.97,58.11
             28.15,42.06 43.02,28.32 57.27,22.03
             62.02,19.93 66.84,17.95 71.90,16.59
             72.79,16.36 77.44,15.26 76.22,17.70
             75.78,18.58 74.25,19.15 73.38,19.55
             73.38,19.55 66.53,22.96 66.53,22.96
             60.62,26.33 55.27,30.77 51.15,36.08
             39.48,51.12 39.59,72.39 51.73,87.17
             58.33,95.22 67.03,100.30 76.79,104.05 Z
           M 94.37,101.24
           C 88.14,100.75 81.37,98.39 75.82,95.73
             64.65,90.38 54.45,81.38 51.34,69.36
             50.42,65.77 50.42,63.61 50.42,59.99
             50.43,54.60 52.10,49.22 54.84,44.52
             60.69,34.44 72.35,26.73 83.63,23.12
             83.63,23.12 93.88,20.61 93.88,20.61
             94.25,23.39 92.23,23.41 89.97,24.49
             86.47,26.18 82.68,28.58 79.72,31.06
             71.10,38.25 64.33,49.25 64.10,60.46
             63.85,72.23 71.23,83.76 80.22,91.26
             82.79,93.42 86.42,95.84 89.48,97.31
             91.89,98.47 93.87,98.41 94.37,101.24 Z
           M 306.49,23.06
           C 306.49,23.06 307.28,24.50 307.34,27.23
             307.49,34.27 307.75,46.86 307.75,46.86
             307.75,46.86 307.75,63.27 307.75,63.27
             307.75,63.27 307.53,78.69 307.53,78.69
             307.53,78.69 306.38,81.88 306.38,81.88
             306.38,81.88 301.94,82.60 301.94,82.60
             301.94,82.60 297.50,81.88 297.50,81.88
             297.50,81.88 296.03,78.74 296.03,78.74
             296.03,78.74 296.03,35.61 296.03,35.61
             296.03,35.61 295.95,29.83 295.92,26.11
             295.89,24.35 296.83,23.15 296.83,23.15
             296.83,23.15 301.94,22.33 301.94,22.33
             301.94,22.33 306.49,23.06 306.49,23.06 Z
           M 132.45,81.08
           C 131.14,83.74 129.04,85.29 126.59,86.97
             121.14,90.73 116.09,92.20 109.50,92.87
             107.99,93.03 107.20,93.29 105.59,93.18
             86.03,91.85 72.67,77.89 72.89,59.05
             73.09,42.13 86.90,28.61 104.63,28.58
             113.62,28.57 120.14,29.70 127.58,35.10
             128.97,36.11 133.72,39.64 132.85,41.52
             132.38,42.58 128.28,44.51 127.09,45.10
             125.52,45.87 121.82,48.20 120.25,47.89
             119.12,47.66 115.89,44.95 114.39,44.09
             110.18,41.71 104.80,41.04 100.23,42.77
             86.23,48.03 85.75,71.46 98.77,78.01
             103.50,80.34 108.10,80.00 112.92,78.01
             114.68,77.34 117.32,75.32 118.78,75.31
             119.84,75.30 121.67,76.24 122.69,76.66
             122.69,76.66 132.45,81.08 132.45,81.08 Z
           M 328.74,66.55
           C 328.74,67.89 328.49,70.44 329.52,71.42
             330.40,72.26 331.99,72.16 333.14,72.17
             333.14,72.17 349.74,72.17 349.74,72.17
             353.52,72.18 354.10,72.11 354.14,75.92
             354.15,77.36 354.52,81.59 353.35,82.48
             352.58,83.06 350.72,82.96 349.74,82.96
             349.74,82.96 329.72,82.96 329.72,82.96
             325.64,82.95 321.97,82.25 319.08,79.19
             314.33,74.10 315.55,61.53 315.57,54.83
             315.57,52.60 315.73,50.44 316.29,48.27
             318.17,41.18 324.37,39.39 331.19,39.36
             331.19,39.36 342.42,39.36 342.42,39.36
             346.75,39.41 351.53,40.34 354.52,43.60
             357.67,47.03 357.13,51.53 357.07,55.77
             357.04,57.31 357.02,58.04 356.45,59.52
             353.64,66.98 346.22,66.55 339.49,66.55
             339.49,66.55 328.74,66.55 328.74,66.55 Z
           M 144.17,39.93
           C 144.17,39.93 152.97,39.93 152.97,39.93
             157.79,39.83 163.07,39.38 167.12,42.42
             170.00,44.58 171.59,47.79 172.63,51.08
             175.27,59.50 174.43,74.59 166.64,80.36
             162.12,83.71 153.64,83.02 148.08,82.96
             146.10,82.93 144.12,82.69 142.22,82.13
             131.89,79.02 131.38,66.64 131.48,58.11
             131.58,49.94 134.99,41.74 144.17,39.93 Z
           M 205.22,49.67
           C 202.58,49.67 194.47,49.08 192.80,50.85
             191.87,51.85 192.03,53.57 192.02,54.83
             192.02,54.83 192.02,79.21 192.02,79.21
             192.00,83.32 191.64,83.01 183.72,82.96
             179.75,82.93 179.83,82.36 179.82,78.74
             179.82,78.74 179.82,52.49 179.82,52.49
             179.93,43.68 185.23,39.93 193.98,39.83
             193.98,39.83 222.78,39.83 222.78,39.83
             227.20,39.83 233.08,39.39 236.95,41.70
             242.02,44.71 242.79,50.04 242.80,55.30
             242.80,55.30 242.80,78.74 242.80,78.74
             242.80,79.65 242.93,81.42 242.33,82.14
             241.33,83.32 236.59,82.96 234.99,82.96
             233.87,82.96 231.87,83.13 231.09,82.21
             230.49,81.46 230.59,79.67 230.59,78.74
             230.59,78.74 230.59,55.30 230.59,55.30
             230.59,53.71 230.77,52.03 229.47,50.81
             227.78,49.24 223.15,49.64 220.84,49.67
             219.79,49.69 218.50,49.66 217.72,50.42
             216.78,51.32 216.93,53.17 216.93,54.36
             216.93,54.36 216.93,75.92 216.93,75.92
             216.93,82.14 217.42,82.89 213.52,82.96
             211.93,82.98 206.64,83.34 205.70,82.21
             205.09,81.46 205.22,79.67 205.22,78.74
             205.22,78.74 205.22,49.67 205.22,49.67 Z
           M 262.83,82.96
           C 262.83,82.96 262.83,92.80 262.83,92.80
             262.75,96.66 261.78,96.13 254.52,96.08
             253.64,96.08 252.13,96.15 251.39,95.60
             250.43,94.87 250.62,92.94 250.62,91.86
             250.62,91.86 250.62,52.02 250.62,52.02
             250.62,52.02 250.62,43.11 250.62,43.11
             250.64,42.20 250.58,40.94 251.39,40.31
             252.18,39.72 254.04,39.83 255.02,39.83
             255.02,39.83 270.64,39.83 270.64,39.83
             275.35,39.83 279.45,39.60 283.32,42.80
             285.97,45.00 287.32,47.95 288.38,51.08
             291.29,59.67 290.79,75.02 282.35,80.71
             277.83,83.76 268.37,82.96 262.83,82.96 Z
           M 361.95,39.83
           C 361.95,39.83 372.69,39.83 372.69,39.83
             372.69,39.83 375.92,40.31 375.92,40.31
             375.92,40.31 382.47,49.67 382.47,49.67
             383.37,47.62 387.79,40.89 389.83,40.11
             391.13,39.61 400.39,39.83 402.47,39.83
             401.64,43.10 395.78,50.33 393.48,53.42
             392.55,54.66 390.09,57.59 390.12,59.05
             390.14,60.44 393.60,64.74 394.59,66.08
             397.03,69.38 404.83,79.39 405.90,82.49
             405.90,82.49 395.14,82.96 395.14,82.96
             395.14,82.96 391.84,82.21 391.84,82.21
             391.84,82.21 388.22,77.33 388.22,77.33
             388.22,77.33 381.97,67.96 381.97,67.96
             381.97,67.96 375.64,78.27 375.64,78.27
             375.64,78.27 372.50,82.41 372.50,82.41
             372.50,82.41 359.03,82.49 359.03,82.49
             360.22,79.47 368.22,68.92 370.67,65.61
             371.72,64.20 374.99,60.19 374.82,58.58
             374.68,57.37 372.02,54.09 371.14,52.96
             368.73,49.78 363.27,43.14 361.95,39.83 Z
           M 408.33,39.83
           C 408.33,39.83 417.13,39.83 417.13,39.83
             418.08,39.85 419.39,39.78 420.04,40.58
             420.65,41.33 420.54,43.12 420.54,44.05
             420.54,44.05 420.54,67.96 420.54,67.96
             420.58,72.29 421.68,72.63 425.90,72.64
             425.90,72.64 435.68,72.64 435.68,72.64
             435.68,72.64 435.68,48.27 435.68,48.27
             435.68,46.68 435.24,41.24 436.45,40.31
             437.24,39.72 439.10,39.83 440.08,39.83
             440.08,39.83 447.89,39.83 447.89,39.83
             447.89,39.83 447.89,72.64 447.89,72.64
             447.89,72.64 447.89,79.67 447.89,79.67
             447.87,80.59 447.94,81.84 447.10,82.48
             446.33,83.06 444.47,82.96 443.49,82.96
             443.49,82.96 423.47,82.96 423.47,82.96
             419.99,82.91 415.55,82.29 412.78,80.18
             409.72,77.86 408.39,73.93 408.33,70.30
             408.33,70.30 408.33,39.83 408.33,39.83 Z
           M 489.88,50.14
           C 489.88,50.14 472.79,50.14 472.79,50.14
             471.64,50.14 469.97,50.05 468.95,50.62
             467.02,51.72 467.02,54.66 468.95,55.76
             469.97,56.33 471.64,56.24 472.79,56.24
             472.79,56.24 478.64,56.24 478.64,56.24
             482.29,56.24 485.54,56.61 488.32,59.20
             492.64,63.27 492.39,75.45 488.32,79.63
             486.00,81.99 483.72,82.25 480.60,82.68
             480.60,82.68 463.52,82.96 463.52,82.96
             456.34,82.96 455.28,83.50 455.20,79.67
             455.20,79.67 455.20,75.92 455.20,75.92
             455.28,72.41 456.32,72.65 459.60,72.64
             459.60,72.64 474.25,72.64 474.25,72.64
             475.42,72.64 477.02,72.70 478.03,72.09
             479.82,71.01 479.97,68.15 478.03,67.03
             477.08,66.46 475.38,66.55 474.25,66.55
             469.73,66.54 462.85,66.70 459.17,63.91
             453.64,59.71 454.12,46.12 459.65,42.08
             461.99,40.37 465.52,39.86 468.40,39.83
             468.40,39.83 489.88,39.83 489.88,39.83
             489.88,39.83 489.88,50.14 489.88,50.14 Z
           M 147.59,49.88
           C 143.45,51.48 143.20,55.75 143.30,59.52
             143.19,61.46 143.09,64.76 143.30,66.55
             143.72,68.15 144.47,70.79 145.83,71.83
             147.09,72.79 149.00,72.64 150.52,72.64
             152.64,72.65 157.59,73.06 159.22,71.89
             160.67,70.84 161.34,68.68 161.68,67.02
             162.39,62.11 162.19,61.43 161.68,56.71
             161.58,54.75 161.22,52.25 159.60,50.85
             157.68,49.17 150.18,49.50 147.59,49.88 Z
           M 262.83,72.64
           C 262.83,72.64 271.13,72.64 271.13,72.64
             272.83,72.63 274.49,72.73 275.80,71.50
             276.90,70.48 277.47,68.44 277.74,67.02
             278.37,63.69 278.27,54.31 276.15,51.60
             273.84,48.61 266.42,49.67 262.83,49.67
             262.83,49.67 262.83,72.64 262.83,72.64 Z
           M 328.25,57.64
           C 328.25,57.64 336.07,57.64 336.07,57.64
             337.70,57.64 343.33,58.07 344.28,56.91
             344.95,56.10 344.89,53.97 344.84,52.96
             344.80,52.07 344.79,51.16 344.08,50.49
             342.68,49.17 335.33,49.66 333.14,49.67
             332.02,49.68 330.34,49.61 329.39,50.22
             327.70,51.30 328.25,55.83 328.25,57.64 Z
           M 317.02,86.24
           C 317.02,86.24 324.84,86.24 324.84,86.24
             324.84,86.24 324.84,88.58 324.84,88.58
             324.84,88.58 319.97,88.58 319.97,88.58
             319.97,88.58 319.97,92.80 319.97,92.80
             319.97,92.80 323.38,92.80 323.38,92.80
             323.38,92.80 323.38,95.14 323.38,95.14
             323.38,95.14 319.97,95.14 319.97,95.14
             319.97,95.14 319.97,100.30 319.97,100.30
             319.97,100.30 324.84,100.30 324.84,100.30
             324.84,100.30 324.84,102.64 324.84,102.64
             324.84,102.64 317.02,102.64 317.02,102.64
             317.02,102.64 317.02,86.24 317.02,86.24 Z
           M 367.80,86.24
           C 367.80,86.24 370.25,86.24 370.25,86.24
             370.25,86.24 370.25,91.86 370.25,91.86
             374.27,90.77 375.57,91.64 375.62,95.61
             375.62,95.61 375.62,102.64 375.62,102.64
             375.62,102.64 373.18,102.64 373.18,102.64
             373.18,102.64 373.18,93.74 373.18,93.74
             373.18,93.74 370.25,93.74 370.25,93.74
             370.25,93.74 370.25,102.64 370.25,102.64
             370.25,102.64 367.80,102.64 367.80,102.64
             367.80,102.64 367.80,86.24 367.80,86.24 Z
           M 406.87,86.24
           C 406.87,86.24 409.80,86.24 409.80,86.24
             409.80,86.24 409.80,102.64 409.80,102.64
             409.80,102.64 406.87,102.64 406.87,102.64
             406.87,102.64 406.87,86.24 406.87,86.24 Z
           M 486.95,86.24
           C 486.95,86.24 489.39,86.24 489.39,86.24
             489.39,86.24 489.39,102.64 489.39,102.64
             487.75,102.60 483.45,102.91 482.43,101.89
             481.33,100.82 481.58,98.00 481.58,96.55
             481.59,92.42 481.98,90.51 486.95,91.86
             486.95,91.86 486.95,86.24 486.95,86.24 Z
           M 377.95,87.65
           C 380.33,86.84 380.63,88.81 379.72,89.50
             378.84,90.17 376.69,89.70 377.95,87.65 Z
           M 361.45,88.11
           C 361.45,88.11 363.89,88.11 363.89,88.11
             363.89,88.11 363.89,91.39 363.89,91.39
             363.89,91.39 366.34,91.39 366.34,91.39
             366.34,91.39 366.34,93.27 366.34,93.27
             366.34,93.27 363.89,93.27 363.89,93.27
             363.89,93.27 363.72,100.57 364.05,100.53
             364.18,100.82 365.83,100.72 366.38,100.78
             366.38,100.78 366.34,102.64 366.34,102.64
             365.28,102.64 363.49,102.74 362.59,102.16
             360.88,101.06 361.45,95.22 361.45,93.27
             361.45,93.27 359.50,93.27 359.50,93.27
             359.50,93.27 359.50,91.39 359.50,91.39
             359.50,91.39 361.45,91.39 361.45,91.39
             361.45,91.39 361.45,88.11 361.45,88.11 Z
           M 422.49,88.11
           C 422.49,88.11 424.94,88.11 424.94,88.11
             424.94,88.11 424.94,91.39 424.94,91.39
             424.94,91.39 427.38,91.39 427.38,91.39
             427.38,91.39 427.38,93.27 427.38,93.27
             427.38,93.27 424.94,93.27 424.94,93.27
             424.94,93.27 424.45,100.31 425.02,100.55
             425.30,100.87 427.38,100.77 427.38,100.77
             427.38,100.77 427.42,102.49 427.42,102.49
             426.35,102.48 424.53,102.74 423.63,102.16
             421.90,101.06 422.49,95.22 422.49,93.27
             422.49,93.27 420.54,93.27 420.54,93.27
             420.54,93.27 420.54,91.39 420.54,91.39
             420.54,91.39 422.49,91.39 422.49,91.39
             422.49,91.39 422.49,88.11 422.49,88.11 Z
           M 465.47,88.11
           C 465.47,88.11 467.90,88.11 467.90,88.11
             467.90,88.11 467.90,91.39 467.90,91.39
             467.90,91.39 470.34,91.39 470.34,91.39
             470.34,91.39 470.34,93.27 470.34,93.27
             470.34,93.27 467.90,93.27 467.90,93.27
             467.90,93.27 467.23,99.91 467.97,100.43
             468.24,100.80 470.18,100.68 470.33,100.70
             470.33,101.22 470.34,102.64 470.34,102.64
             469.27,102.64 467.50,102.74 466.59,102.16
             464.88,101.06 465.47,95.22 465.47,93.27
             465.47,93.27 463.52,93.27 463.52,93.27
             463.52,93.27 463.52,91.39 463.52,91.39
             463.52,91.39 465.47,91.39 465.47,91.39
             465.47,91.39 465.47,88.11 465.47,88.11 Z
           M 324.84,91.39
           C 324.84,91.39 327.78,91.39 327.78,91.39
             327.78,91.39 329.72,98.89 329.72,98.89
             329.79,97.44 330.69,92.80 330.92,91.37
             331.65,91.39 332.47,91.37 333.63,91.39
             333.63,91.39 331.19,102.64 331.19,102.64
             331.19,102.64 327.79,102.72 327.79,102.72
             327.79,102.72 326.73,98.89 326.73,98.89
             326.73,98.89 324.84,91.39 324.84,91.39 Z
           M 341.44,102.64
           C 341.44,102.64 338.52,102.64 338.52,102.64
             333.63,102.55 334.55,99.36 334.60,95.61
             334.63,94.50 334.58,93.00 335.45,92.14
             336.65,90.96 340.93,91.06 341.92,92.48
             342.52,93.34 342.42,95.05 342.42,96.08
             342.42,96.08 342.42,97.96 342.42,97.96
             342.42,97.96 337.04,97.96 337.04,97.96
             337.04,97.96 337.04,100.77 337.04,100.77
             337.04,100.77 341.44,100.77 341.44,100.77
             341.44,100.77 341.44,102.64 341.44,102.64 Z
           M 344.37,91.39
           C 344.37,91.39 349.74,91.39 349.74,91.39
             349.74,91.39 349.74,93.74 349.74,93.74
             349.74,93.74 346.82,93.74 346.82,93.74
             346.82,93.74 346.82,102.64 346.82,102.64
             346.82,102.64 344.37,102.64 344.37,102.64
             344.37,102.64 344.37,91.39 344.37,91.39 Z
           M 350.23,91.39
           C 350.23,91.39 353.15,91.39 353.15,91.39
             353.15,91.39 354.68,98.34 354.68,98.34
             354.80,96.88 355.53,93.09 355.75,91.35
             356.57,91.37 358.30,91.45 359.03,91.39
             359.03,91.39 356.64,101.24 356.64,101.24
             356.64,101.24 355.38,106.42 355.38,106.42
             355.38,106.42 352.18,106.39 352.18,106.39
             352.18,106.39 353.08,102.64 353.08,102.64
             353.08,102.64 350.23,91.39 350.23,91.39 Z
           M 377.58,91.39
           C 377.58,91.39 380.02,91.39 380.02,91.39
             380.02,91.39 380.02,102.64 380.02,102.64
             380.02,102.64 377.58,102.64 377.58,102.64
             377.58,102.64 377.58,91.39 377.58,91.39 Z
           M 382.47,91.39
           C 383.88,91.44 388.14,91.26 389.08,91.87
             390.90,93.07 390.28,100.45 390.28,102.64
             390.28,102.64 387.83,102.64 387.83,102.64
             387.83,102.64 387.83,93.74 387.83,93.74
             387.83,93.74 384.89,93.74 384.89,93.74
             384.89,93.74 384.89,102.64 384.89,102.64
             384.89,102.64 382.47,102.64 382.47,102.64
             382.47,102.64 382.47,91.39 382.47,91.39 Z
           M 397.59,102.17
           C 391.45,103.84 392.15,99.88 392.22,95.61
             392.24,94.50 392.20,93.00 393.08,92.14
             394.09,91.14 398.43,91.44 400.03,91.39
             400.03,91.39 400.03,102.17 400.03,102.17
             400.02,103.44 400.18,105.32 398.95,106.13
             397.95,106.79 393.82,106.22 392.53,106.22
             392.53,106.22 392.57,104.26 392.57,104.26
             392.57,104.26 397.59,104.52 397.59,104.52
             397.59,104.52 397.59,102.17 397.59,102.17 Z
           M 411.75,91.39
           C 413.17,91.44 418.55,91.45 419.49,91.44
             419.48,93.38 419.57,100.45 419.57,102.64
             419.57,102.64 417.13,102.64 417.13,102.64
             417.13,102.64 417.13,93.74 417.13,93.74
             417.13,93.74 414.19,93.74 414.19,93.74
             414.19,93.74 414.19,102.64 414.19,102.64
             414.19,102.64 411.75,102.64 411.75,102.64
             411.75,102.64 411.75,91.39 411.75,91.39 Z
           M 436.64,102.62
           C 436.64,102.62 432.75,102.64 432.75,102.64
             427.87,102.55 428.79,99.36 428.84,95.61
             428.87,94.50 428.83,93.00 429.69,92.14
             430.90,90.96 435.09,91.05 436.09,92.48
             436.72,93.39 436.65,95.01 436.65,96.08
             436.65,96.08 436.65,97.96 436.65,97.96
             436.65,97.96 431.28,97.96 431.28,97.96
             431.28,97.96 431.28,100.77 431.28,100.77
             431.28,100.77 436.64,100.82 436.64,100.82
             436.64,100.82 436.64,102.62 436.64,102.62 Z
           M 443.98,102.17
           C 437.84,103.84 438.55,99.88 438.60,95.61
             438.63,94.50 438.59,93.00 439.47,92.14
             440.48,91.14 444.82,91.44 446.42,91.39
             446.42,91.39 446.42,102.17 446.42,102.17
             446.39,103.44 446.45,105.10 445.23,105.91
             444.23,106.58 440.09,106.17 438.82,106.17
             438.82,106.17 438.82,104.42 438.82,104.42
             438.82,104.42 443.98,104.52 443.98,104.52
             443.98,104.52 443.98,102.17 443.98,102.17 Z
           M 448.38,91.39
           C 448.38,91.39 453.74,91.39 453.74,91.39
             453.74,91.39 453.74,93.74 453.74,93.74
             453.74,93.74 450.82,93.74 450.82,93.74
             450.82,93.74 450.82,102.64 450.82,102.64
             450.82,102.64 448.38,102.64 448.38,102.64
             448.38,102.64 448.38,91.39 448.38,91.39 Z
           M 455.70,91.39
           C 457.02,91.39 460.30,91.19 461.30,91.87
             463.15,93.14 462.53,100.43 462.53,102.64
             461.05,102.64 456.97,102.87 455.84,102.16
             454.29,101.17 454.29,97.09 455.84,96.09
             456.77,95.51 458.53,95.62 459.60,95.61
             459.60,95.61 459.60,93.27 459.60,93.27
             459.60,93.27 455.70,93.27 455.70,93.27
             455.70,93.27 455.70,91.39 455.70,91.39 Z
           M 479.59,102.59
           C 479.59,102.59 475.72,102.64 475.72,102.64
             470.83,102.55 471.77,99.36 471.82,95.61
             471.84,94.50 471.79,93.00 472.65,92.14
             473.87,90.96 478.07,91.05 479.05,92.48
             479.69,93.39 479.62,95.01 479.63,96.08
             479.63,96.08 479.63,97.96 479.63,97.96
             479.63,97.96 474.25,97.96 474.25,97.96
             474.25,97.96 474.25,100.77 474.25,100.77
             474.25,100.77 479.58,100.73 479.58,100.73
             479.58,100.73 479.59,102.59 479.59,102.59 Z
           M 339.97,93.74
           C 339.97,93.74 337.04,93.74 337.04,93.74
             337.04,93.74 337.04,96.08 337.04,96.08
             337.04,96.08 339.97,96.08 339.97,96.08
             339.97,96.08 339.97,93.74 339.97,93.74 Z
           M 397.59,93.74
           C 397.59,93.74 394.65,93.74 394.65,93.74
             394.65,93.74 394.65,100.30 394.65,100.30
             394.65,100.30 397.59,100.30 397.59,100.30
             397.59,100.30 397.59,93.74 397.59,93.74 Z
           M 434.22,93.74
           C 434.22,93.74 431.28,93.74 431.28,93.74
             431.28,93.74 431.28,96.08 431.28,96.08
             431.28,96.08 434.22,96.08 434.22,96.08
             434.22,96.08 434.22,93.74 434.22,93.74 Z
           M 443.98,93.74
           C 443.98,93.74 441.05,93.74 441.05,93.74
             441.05,93.74 441.05,100.30 441.05,100.30
             441.05,100.30 443.98,100.30 443.98,100.30
             443.98,100.30 443.98,93.74 443.98,93.74 Z
           M 477.18,93.74
           C 477.18,93.74 474.25,93.74 474.25,93.74
             474.25,93.74 474.25,96.08 474.25,96.08
             474.25,96.08 477.18,96.08 477.18,96.08
             477.18,96.08 477.18,93.74 477.18,93.74 Z
           M 486.95,93.74
           C 486.95,93.74 484.03,93.74 484.03,93.74
             484.03,93.74 484.03,100.30 484.03,100.30
             484.03,100.30 486.95,100.30 486.95,100.30
             486.95,100.30 486.95,93.74 486.95,93.74 Z
           M 459.60,97.96
           C 459.60,97.96 457.15,97.96 457.15,97.96
             457.15,97.96 457.15,100.30 457.15,100.30
             457.15,100.30 459.60,100.30 459.60,100.30
             459.60,100.30 459.60,97.96 459.60,97.96 Z
           M 312.17,33.24M 365.10,100.13" />
</svg>
